<?xml version="1.0" encoding="UTF-8" standalone="no"?>
<svg
   viewBox="0 0 34.999992 34.999992"
   height="34.999992pt"
   width="34.999992pt"
   xml:space="preserve"
   id="svg2"
   version="1.1"
   xmlns:xlink="http://www.w3.org/1999/xlink"
   xmlns="http://www.w3.org/2000/svg"
   xmlns:svg="http://www.w3.org/2000/svg"
   xmlns:rdf="http://www.w3.org/1999/02/22-rdf-syntax-ns#"
   xmlns:cc="http://creativecommons.org/ns#"
   xmlns:dc="http://purl.org/dc/elements/1.1/"><title
     id="title165">Subatomix Research Inc. Logo</title><metadata
     id="metadata8"><rdf:RDF><cc:Work
         rdf:about=""><dc:format>image/svg+xml</dc:format><dc:type
           rdf:resource="http://purl.org/dc/dcmitype/StillImage" /><dc:title>Subatomix Research Inc. Logo</dc:title><dc:date>2020-02-16</dc:date><dc:creator><cc:Agent><dc:title>Jeffrey Sharp</dc:title></cc:Agent></dc:creator><dc:rights><cc:Agent><dc:title>© 2020 Subatomix Research Inc.</dc:title></cc:Agent></dc:rights></cc:Work></rdf:RDF></metadata><defs
     id="defs6"><linearGradient
       id="linearGradient946"><stop
         style="stop-color:#fdf4e6;stop-opacity:1;"
         offset="0"
         id="stop944" /></linearGradient><linearGradient
       id="linearGradient900"
       gradientTransform="translate(1451.2496,-56.810481)"><stop
         style="stop-color:#c98138;stop-opacity:1;"
         offset="0"
         id="stop898" /></linearGradient><linearGradient
       xlink:href="#linearGradient900"
       id="linearGradient902"
       x1="0"
       y1="538.66663"
       x2="1077.3333"
       y2="538.66663"
       gradientUnits="userSpaceOnUse" /><linearGradient
       xlink:href="#linearGradient900"
       id="linearGradient908"
       x1="135.084"
       y1="538.66669"
       x2="942.2533"
       y2="538.66669"
       gradientUnits="userSpaceOnUse" /><linearGradient
       xlink:href="#linearGradient900"
       id="linearGradient914"
       x1="665.41333"
       y1="647.06665"
       x2="822.17334"
       y2="647.06665"
       gradientUnits="userSpaceOnUse" /><linearGradient
       xlink:href="#linearGradient900"
       id="linearGradient920"
       x1="460.28531"
       y1="316.85995"
       x2="617.05334"
       y2="316.85995"
       gradientUnits="userSpaceOnUse" /><linearGradient
       xlink:href="#linearGradient946"
       id="linearGradient948"
       x1="865.06866"
       y1="544.86414"
       x2="1934.1385"
       y2="544.86414"
       gradientUnits="userSpaceOnUse"
       gradientTransform="translate(-860.9369,-6.1974486)" /></defs><g
     id="g245"
     transform="scale(0.03248762)"><ellipse
       style="display:inline;fill:url(#linearGradient948);fill-opacity:1;stroke:url(#linearGradient936)"
       id="path942"
       cx="538.66669"
       cy="538.66669"
       rx="534.53497"
       ry="537.11725" /><path
       id="path14"
       style="fill:url(#linearGradient902);fill-opacity:1;fill-rule:nonzero;stroke:none;stroke-width:0.133333"
       d="M 538.66662,0 C 241.16932,0 0,241.17333 0,538.66665 c 0,297.4933 241.16932,538.66665 538.66662,538.66665 297.4934,0 538.66668,-241.17335 538.66668,-538.66665 C 1077.3333,241.17333 836.16002,0 538.66662,0 Z m 0,1010.6267 c -260.6546,0 -471.95862,-211.30675 -471.95862,-471.96005 0,-260.65332 211.30402,-471.95998 471.95862,-471.95998 260.6534,0 471.95998,211.30666 471.95998,471.95998 0,260.6533 -211.30658,471.96005 -471.95998,471.96005 v 0" /><path
       id="path16"
       style="fill:url(#linearGradient908);fill-opacity:1;fill-rule:nonzero;stroke:none;stroke-width:0.133333"
       d="m 538.66662,135.08 c -222.8933,0 -403.58262,180.69333 -403.58262,403.58665 0,222.8933 180.68932,403.5867 403.58262,403.5867 222.8934,0 403.5867,-180.6934 403.5867,-403.5867 0,-222.89332 -180.6933,-403.58665 -403.5867,-403.58665 z m -191.7853,628.71995 c -64.4733,0 -116.74,-52.2533 -116.74,-116.7333 0,-64.48 52.2667,-116.7333 116.74,-116.7333 64.4733,0 116.7387,52.2533 116.7387,116.7333 0,64.48 -52.2654,116.7333 -116.7387,116.7333 z m 191.7853,-330.2 c -64.472,0 -116.7386,-52.2666 -116.7386,-116.73329 0,-64.48 52.2666,-116.74666 116.7386,-116.74666 64.4667,0 116.7334,52.26666 116.7334,116.74666 0,64.46669 -52.2667,116.73329 -116.7334,116.73329 z m 205.12,330.2 c -64.4666,0 -116.7333,-52.2533 -116.7333,-116.7333 0,-64.48 52.2667,-116.7333 116.7333,-116.7333 64.48,0 116.7467,52.2533 116.7467,116.7333 0,64.48 -52.2667,116.7333 -116.7467,116.7333 v 0" /><path
       id="path18"
       style="fill:url(#linearGradient900);fill-opacity:1;fill-rule:nonzero;stroke:none;stroke-width:0.133333"
       d="m 425.26262,647.06665 c 0,43.2933 -35.0906,78.3867 -78.3813,78.3867 -43.2907,0 -78.3813,-35.0934 -78.3813,-78.3867 0,-43.2933 35.0906,-78.3867 78.3813,-78.3867 43.2907,0 78.3813,35.0934 78.3813,78.3867 v 0" /><path
       id="path20"
       style="fill:url(#linearGradient914);fill-opacity:1;fill-rule:nonzero;stroke:none;stroke-width:0.133333"
       d="m 822.17332,647.06665 c 0,43.2933 -35.0933,78.3867 -78.3867,78.3867 -43.28,0 -78.3733,-35.0934 -78.3733,-78.3867 0,-43.2933 35.0933,-78.3867 78.3733,-78.3867 43.2934,0 78.3867,35.0934 78.3867,78.3867 v 0" /><path
       id="path22"
       style="fill:url(#linearGradient920);fill-opacity:1;fill-rule:nonzero;stroke:none;stroke-width:0.133333"
       d="m 617.05332,316.86666 c 0,43.27999 -35.0933,78.37329 -78.3867,78.37329 -43.2906,0 -78.3813,-35.0933 -78.3813,-78.37329 0,-43.29333 35.0907,-78.38667 78.3813,-78.38667 43.2934,0 78.3867,35.09334 78.3867,78.38667 v 0" /></g></svg>
